<svg width="1068" height="194" viewBox="0 0 1068 194" fill="none" xmlns="http://www.w3.org/2000/svg">
<path d="M89.7236 193.563C81.667 193.563 74.8311 191.977 69.2158 188.803C63.6006 185.629 58.8805 181.031 55.0557 175.009L52.3701 191H18.6787V27.5479L0.00195312 23.7637V0.570312H57.6191V72.4697C61.2812 67.3428 65.8385 63.3958 71.291 60.6289C76.7435 57.862 83.0505 56.4785 90.2119 56.4785C100.791 56.4785 109.743 59.3268 117.067 65.0234C124.473 70.6387 130.088 78.6546 133.913 89.0713C137.819 99.4066 139.772 111.614 139.772 125.692V128.256C139.772 141.439 137.819 152.955 133.913 162.802C130.088 172.567 124.432 180.136 116.945 185.507C109.54 190.878 100.466 193.563 89.7236 193.563ZM77.5166 163.412C85.9801 163.412 91.9616 160.442 95.4609 154.501C99.0417 148.479 100.832 139.73 100.832 128.256V125.692C100.832 117.473 100.018 110.474 98.3906 104.696C96.8444 98.9183 94.403 94.4831 91.0664 91.3906C87.7298 88.2168 83.376 86.6299 78.0049 86.6299C73.2848 86.6299 69.1751 87.7692 65.6758 90.0479C62.2578 92.2451 59.5723 95.2155 57.6191 98.959V153.158C59.8978 156.576 62.7054 159.14 66.042 160.849C69.3786 162.558 73.2035 163.412 77.5166 163.412ZM159.304 191V167.929L175.539 164.145V85.8975L156.984 82.1133V58.9199H212.16L213.381 75.1553L213.625 78.3291C216.717 70.9235 220.542 65.4303 225.1 61.8496C229.657 58.2689 235.272 56.4785 241.945 56.4785C243.898 56.4785 246.096 56.6413 248.537 56.9668C251.06 57.2923 253.42 57.7806 255.617 58.4316L251.589 94.3203L233.645 93.4658C228.924 93.2217 225.181 93.8727 222.414 95.4189C219.647 96.9652 217.043 99.3252 214.602 102.499V164.145L230.959 167.929V191H159.304ZM326.784 193.563C314.007 193.563 302.858 190.797 293.337 185.263C283.815 179.647 276.41 171.998 271.12 162.313C265.912 152.548 263.308 141.48 263.308 129.11V124.35C263.308 111.166 265.708 99.4473 270.51 89.1934C275.311 78.9395 282.229 70.9235 291.262 65.1455C300.295 59.2861 311.118 56.3971 323.732 56.4785C335.695 56.4785 345.786 58.7979 354.006 63.4365C362.225 68.0752 368.451 74.8704 372.683 83.8223C376.996 92.6927 379.152 103.516 379.152 116.293V137.045H303.835L303.713 137.777C304.201 142.823 305.585 147.299 307.863 151.205C310.223 155.03 313.438 158.082 317.507 160.36C321.657 162.639 326.703 163.778 332.644 163.778C338.747 163.778 344.525 163.046 349.978 161.581C355.511 160.116 361.086 157.838 366.701 154.745L376.467 178.549C370.77 182.862 363.69 186.443 355.227 189.291C346.844 192.139 337.364 193.563 326.784 193.563ZM303.957 112.021H343.02V108.847C343.02 103.801 342.409 99.5286 341.188 96.0293C340.049 92.4486 338.096 89.7223 335.329 87.8506C332.644 85.9788 329.063 85.043 324.587 85.043C320.03 85.043 316.286 86.1823 313.356 88.4609C310.427 90.7396 308.189 93.8727 306.643 97.8604C305.178 101.848 304.16 106.365 303.591 111.41L303.957 112.021ZM439.211 193.563C426.19 193.563 415.733 190.023 407.839 182.943C400.026 175.782 396.12 166.138 396.12 154.013C396.12 145.793 398.317 138.51 402.712 132.162C407.188 125.814 413.861 120.85 422.731 117.27C431.602 113.689 442.629 111.898 455.812 111.898H471.56V103.109C471.56 97.25 469.851 92.4079 466.433 88.583C463.096 84.7581 457.969 82.8457 451.052 82.8457C447.715 82.8457 444.663 83.2526 441.896 84.0664C439.211 84.8802 436.729 86.0602 434.45 87.6064L431.643 104.696H403.811L403.322 69.2959C410.484 65.6338 418.133 62.582 426.271 60.1406C434.41 57.6992 443.443 56.4785 453.371 56.4785C471.031 56.4785 484.987 60.5475 495.241 68.6855C505.495 76.8236 510.622 88.4202 510.622 103.476V155.233C510.622 157.105 510.622 158.936 510.622 160.727C510.703 162.436 510.907 164.104 511.232 165.731L525.148 167.929V191H478.273C477.297 189.128 476.28 186.931 475.222 184.408C474.164 181.885 473.431 179.363 473.024 176.84C468.874 181.967 464.113 186.036 458.742 189.047C453.371 192.058 446.861 193.563 439.211 193.563ZM450.441 165.365C454.51 165.365 458.457 164.47 462.282 162.68C466.107 160.889 469.2 158.448 471.56 155.355V135.336H456.057C449.221 135.336 443.972 136.882 440.31 139.975C436.729 143.067 434.938 146.892 434.938 151.449C434.938 155.844 436.322 159.262 439.089 161.703C441.937 164.145 445.721 165.365 450.441 165.365ZM533.938 191V167.929L550.417 164.145V27.5479L531.496 23.7637V0.570312H589.235V164.145L603.273 167.929V191H533.938ZM617.8 191V169.271L626.955 166.708L626.589 166.22L604.006 134.726L629.763 110.189L670.046 163.778L685.793 167.929V191H617.8ZM584.963 155.478L565.31 135.336L622.683 84.1885L622.805 83.9443L609.499 81.8691V58.9199H681.643V82.1133L664.553 86.752L584.963 155.478ZM755.617 193.563C742.271 193.563 730.837 190.756 721.315 185.141C711.875 179.444 704.632 171.55 699.587 161.459C694.623 151.286 692.141 139.527 692.141 126.181V123.739C692.141 110.556 694.623 98.9183 699.587 88.8271C704.632 78.736 711.875 70.8421 721.315 65.1455C730.756 59.3675 742.108 56.4785 755.373 56.4785C768.638 56.4785 779.991 59.3268 789.431 65.0234C798.871 70.7201 806.073 78.6139 811.037 88.7051C816.083 98.7962 818.605 110.474 818.605 123.739V126.181C818.605 139.446 816.083 151.164 811.037 161.337C806.073 171.428 798.871 179.322 789.431 185.019C780.072 190.715 768.801 193.563 755.617 193.563ZM755.617 163.778C761.314 163.778 765.912 162.232 769.411 159.14C772.992 156.047 775.596 151.693 777.224 146.078C778.933 140.463 779.787 133.83 779.787 126.181V123.739C779.787 116.334 778.933 109.864 777.224 104.33C775.596 98.7148 772.992 94.3203 769.411 91.1465C765.83 87.9727 761.151 86.3857 755.373 86.3857C749.676 86.3857 745.038 87.9727 741.457 91.1465C737.876 94.3203 735.272 98.7148 733.645 104.33C732.017 109.864 731.203 116.334 731.203 123.739V126.181C731.203 133.83 732.017 140.504 733.645 146.2C735.272 151.815 737.876 156.169 741.457 159.262C745.038 162.273 749.758 163.778 755.617 163.778ZM889.04 193.563C875.287 193.563 864.463 189.21 856.569 180.502C848.675 171.713 844.729 158.163 844.729 139.853V85.8975L830.446 82.1133V58.9199H844.729H883.791V140.097C883.791 148.072 885.297 153.972 888.308 157.797C891.319 161.54 895.917 163.412 902.102 163.412C906.333 163.412 910.24 162.598 913.82 160.971C917.482 159.343 920.575 156.942 923.098 153.769V85.8975L908.083 82.1133V58.9199H923.098H962.16V164.145L978.396 167.929V191H928.103L925.539 175.131C921.307 181.072 916.099 185.629 909.914 188.803C903.811 191.977 896.853 193.563 889.04 193.563ZM1043.95 193.686C1030.93 193.686 1020.96 190.186 1014.04 183.188C1007.12 176.107 1003.66 164.918 1003.66 149.618V86.1416H986.33V58.9199H1003.66V26.4492H1042.48V58.9199H1065.55V86.1416H1042.48V149.496C1042.48 154.216 1043.5 157.593 1045.53 159.628C1047.65 161.581 1050.5 162.558 1054.08 162.558C1055.87 162.558 1057.7 162.436 1059.57 162.191C1061.44 161.947 1063.15 161.703 1064.7 161.459L1067.63 190.146C1063.97 191.203 1060.1 192.058 1056.03 192.709C1052.04 193.36 1048.02 193.686 1043.95 193.686Z" fill="#C3191E"/>
</svg>
